<?xml version="1.0" standalone="no"?>
<!DOCTYPE svg PUBLIC "-//W3C//DTD SVG 20010904//EN"
 "http://www.w3.org/TR/2001/REC-SVG-20010904/DTD/svg10.dtd">
<svg version="1.0" xmlns="http://www.w3.org/2000/svg"
 width="500.000000pt" height="500.000000pt" viewBox="0 0 500.000000 500.000000"
 preserveAspectRatio="xMidYMid meet">

<g transform="translate(0.000000,500.000000) scale(0.100000,-0.100000)"
fill="#000000" stroke="none">
<path d="M2275 4764 c-142 -19 -192 -29 -275 -50 -135 -36 -197 -57 -308 -105
-412 -179 -754 -497 -972 -902 -86 -162 -165 -399 -200 -602 -29 -168 -29
-479 0 -649 138 -812 758 -1461 1555 -1626 227 -48 536 -51 775 -10 307 53
641 206 886 405 389 317 626 721 721 1230 21 113 28 416 14 545 -92 805 -649
1466 -1430 1696 -180 53 -270 65 -516 69 -121 2 -233 1 -250 -1z m525 -78
c166 -28 301 -69 450 -134 253 -111 444 -244 629 -437 279 -292 443 -622 517
-1040 25 -140 25 -451 0 -590 -74 -408 -235 -735 -513 -1037 -63 -68 -238
-211 -347 -283 -408 -269 -908 -369 -1394 -279 -406 75 -761 267 -1047 565
-367 384 -552 872 -532 1407 6 172 23 282 66 436 130 468 429 865 848 1129
245 153 481 233 828 281 64 9 414 -4 495 -18z"/>
<path d="M2225 4505 c-610 -97 -1119 -498 -1350 -1065 -88 -217 -127 -418
-128 -660 0 -176 11 -264 55 -435 64 -249 170 -461 337 -670 l56 -70 3 538 2
537 38 0 38 0 12 -71 c33 -193 142 -412 275 -555 l53 -57 29 16 c69 38 109 91
130 174 12 48 15 114 13 327 l-3 268 -80 32 c-167 68 -268 131 -351 218 -138
145 -194 269 -194 434 0 331 237 611 623 735 144 46 261 63 442 63 317 -1 550
-62 929 -244 183 -88 235 -101 300 -76 50 19 94 67 126 137 l20 44 -28 23
c-15 13 -63 47 -107 77 -220 147 -469 244 -724 280 -126 18 -402 18 -516 0z"/>
<path d="M2056 4179 c-273 -45 -478 -243 -479 -461 0 -58 5 -78 34 -134 l34
-67 226 2 225 2 146 -153 146 -154 254 -63 c139 -35 319 -84 400 -107 81 -24
150 -44 153 -44 3 0 5 33 5 73 0 207 -110 354 -285 382 -83 13 -86 15 -83 38
l3 22 318 3 318 2 -22 38 c-95 158 -210 285 -332 365 -195 129 -443 221 -677
253 -114 15 -305 17 -384 3z"/>
<path d="M3680 3628 l0 -428 -33 0 c-34 0 -34 0 -86 125 -33 78 -58 125 -67
125 -27 0 -80 -27 -117 -59 -76 -67 -117 -182 -117 -328 l0 -90 43 -13 c73
-23 217 -98 286 -149 149 -110 237 -233 287 -396 27 -91 25 -267 -5 -365 -83
-270 -289 -478 -573 -578 -152 -54 -278 -73 -490 -73 -271 0 -397 28 -750 167
-249 98 -326 117 -442 112 -131 -6 -209 -45 -284 -142 -12 -16 -22 -32 -22
-37 0 -11 145 -126 224 -177 200 -128 424 -217 649 -258 136 -25 381 -29 534
-10 579 74 1079 433 1338 961 66 135 107 255 142 416 24 114 27 143 27 349 0
209 -2 234 -28 350 -75 342 -221 619 -448 855 l-68 70 0 -427z"/>
<path d="M1460 3491 c0 -15 11 -19 72 -24 135 -11 233 -87 257 -197 6 -28 11
-150 11 -270 0 -189 2 -220 15 -220 13 0 15 36 15 265 0 146 3 265 8 265 6 0
418 -418 651 -662 66 -69 102 -99 124 -103 134 -29 514 -153 600 -196 l37 -20
-2 323 c-3 298 -4 323 -20 326 -17 3 -18 -16 -18 -302 0 -168 -4 -306 -8 -306
-5 0 -48 41 -95 91 -47 51 -139 146 -204 213 -65 67 -208 214 -318 327 l-200
206 -145 38 c-289 74 -461 144 -554 226 l-44 39 -91 0 c-82 0 -91 -2 -91 -19z"/>
<path d="M3490 3498 c1 -30 15 -36 70 -30 41 5 56 11 58 25 3 15 -5 17 -62 17
-46 0 -66 -4 -66 -12z"/>
<path d="M1840 2523 c0 -253 10 -335 49 -412 42 -82 146 -132 304 -146 37 -4
68 -11 69 -16 0 -5 1 -15 2 -21 1 -10 -63 -14 -277 -18 l-278 -5 48 -36 c250
-186 490 -298 779 -365 104 -23 140 -27 279 -26 190 0 270 17 410 86 112 55
191 130 238 225 30 61 32 73 32 166 0 89 -3 106 -28 157 -30 60 -115 153 -172
187 l-35 20 0 -209 0 -210 -23 0 c-23 0 -167 140 -546 531 l-112 116 -87 23
c-166 44 -529 149 -583 169 -30 12 -57 21 -61 21 -5 0 -8 -107 -8 -237z"/>
<path d="M1585 1980 c-11 -4 -50 -11 -87 -15 -57 -6 -68 -11 -68 -26 0 -18 10
-19 127 -19 l127 0 -34 35 c-37 38 -36 38 -65 25z"/>
<path d="M4721 2370 c-6 -29 -10 -54 -9 -56 2 -1 17 5 34 14 l30 17 -22 39
-22 38 -11 -52z"/>
<path d="M220 2377 c-14 -19 -67 -79 -117 -133 -51 -54 -93 -101 -93 -104 0
-3 24 -11 53 -17 37 -8 53 -8 56 0 2 6 32 41 66 77 58 61 64 65 83 52 21 -13
21 -13 6 50 -8 35 -18 74 -22 86 -7 23 -8 23 -32 -11z"/>
<path d="M4840 2251 c0 -4 -17 -15 -37 -26 -21 -10 -51 -28 -67 -38 -31 -22
-45 -13 -47 28 0 17 -57 -174 -58 -199 -1 -5 9 0 22 11 27 26 197 123 213 123
28 0 63 -20 69 -40 10 -31 20 -15 39 62 21 86 20 95 -2 75 -22 -20 -44 -21
-94 -3 -21 8 -38 11 -38 7z"/>
<path d="M293 2118 c-31 -32 -29 -41 11 -59 l33 -15 -8 30 c-4 17 -9 39 -11
49 -3 17 -5 17 -25 -5z"/>
<path d="M60 1966 c0 -4 7 -23 15 -43 l15 -36 30 28 c17 16 27 32 23 36 -11
10 -83 23 -83 15z"/>
<path d="M4579 1903 c-17 -37 -33 -71 -36 -76 -2 -4 7 -2 22 5 23 10 36 6 125
-37 78 -39 100 -54 105 -75 6 -23 11 -18 45 50 21 41 37 76 35 78 -2 2 -12 -2
-22 -8 -16 -10 -35 -4 -121 39 -58 29 -102 57 -102 66 0 37 -22 19 -51 -42z"/>
<path d="M168 1943 c6 -2 18 -2 25 0 6 3 1 5 -13 5 -14 0 -19 -2 -12 -5z"/>
<path d="M273 1934 c22 -7 22 -8 -14 -65 -18 -27 -37 -46 -43 -42 -6 3 -8 3
-4 -2 4 -4 0 -21 -10 -37 -13 -22 -22 -28 -39 -23 l-23 5 21 -52 c12 -29 26
-65 32 -80 l11 -26 23 46 c13 26 57 94 98 152 70 99 73 105 52 111 -28 7 -129
20 -104 13z"/>
<path d="M4472 1684 c-41 -82 -42 -86 -18 -71 25 17 28 16 130 -35 88 -44 106
-56 108 -78 3 -21 8 -16 35 37 17 33 34 71 38 83 7 22 6 22 -16 7 -21 -15 -26
-15 -78 12 -31 16 -77 39 -103 52 -38 19 -48 29 -50 52 -3 25 -9 17 -46 -59z"/>
<path d="M464 1500 c-15 -33 -31 -60 -36 -60 -5 0 -6 -4 -3 -10 3 -5 -1 -23
-10 -40 -13 -24 -20 -30 -37 -24 -16 5 -19 3 -12 -7 73 -122 82 -132 89 -108
9 31 59 147 96 223 39 80 38 86 -15 86 l-45 0 -27 -60z"/>
<path d="M261 1515 c12 -19 25 -35 29 -35 5 0 17 13 26 30 10 16 27 31 38 33
12 2 -9 5 -46 6 l-67 1 20 -35z"/>
<path d="M4395 1521 c-16 -10 -41 -31 -55 -46 -23 -26 -23 -27 -3 -16 38 20
70 13 98 -21 19 -22 25 -38 20 -55 -8 -34 9 -21 29 21 23 48 21 112 -3 126
-28 15 -52 12 -86 -9z"/>
<path d="M4299 1423 c-13 -16 -12 -17 4 -4 9 7 17 15 17 17 0 8 -8 3 -21 -13z"/>
<path d="M4240 1344 l-42 -56 30 6 c26 6 41 -1 113 -56 65 -49 85 -70 89 -93
l5 -29 31 39 c17 22 40 54 52 72 l23 32 -33 -5 c-27 -4 -39 0 -66 25 -18 17
-36 31 -39 31 -4 0 -32 20 -64 45 l-57 45 -42 -56z"/>
<path d="M710 1340 c0 -14 6 -83 14 -155 8 -71 17 -165 21 -207 4 -43 11 -78
16 -78 6 0 26 15 45 34 24 24 34 41 30 53 -3 10 -10 76 -16 148 l-10 130 -50
50 c-47 46 -50 48 -50 25z"/>
<path d="M669 1253 c-13 -16 -12 -17 4 -4 9 7 17 15 17 17 0 8 -8 3 -21 -13z"/>
<path d="M605 1190 c-10 -11 -36 -23 -57 -26 -21 -4 -38 -8 -38 -10 0 -8 53
-64 60 -64 4 0 10 16 13 36 4 20 16 47 28 60 13 13 20 24 17 24 -3 0 -13 -9
-23 -20z"/>
<path d="M930 1124 c0 -5 -4 -25 -9 -45 l-8 -36 41 9 c22 5 42 10 43 12 2 1
-13 18 -32 36 -19 19 -35 30 -35 24z"/>
<path d="M4042 1082 l10 -49 64 -12 c35 -7 64 -17 64 -23 0 -5 4 -7 9 -4 5 3
23 3 40 0 21 -5 31 -12 31 -25 0 -29 11 -23 70 36 51 52 53 55 28 55 -14 0
-86 16 -161 35 -74 19 -142 35 -150 35 -12 0 -12 -8 -5 -48z"/>
<path d="M1033 1027 c4 -10 9 -23 12 -29 2 -7 -24 -53 -59 -103 -49 -70 -70
-91 -91 -95 -27 -5 -26 -7 40 -52 71 -48 84 -53 67 -22 -8 14 -4 26 16 53 15
20 30 38 35 39 4 2 7 8 7 14 0 5 20 35 44 67 l45 58 -61 43 c-36 25 -59 36
-55 27z"/>
<path d="M879 1013 c-13 -16 -12 -17 4 -4 9 7 17 15 17 17 0 8 -8 3 -21 -13z"/>
<path d="M4080 925 c0 -8 4 -15 10 -15 5 0 7 7 4 15 -4 8 -8 15 -10 15 -2 0
-4 -7 -4 -15z"/>
<path d="M3790 917 c-19 -7 -44 -19 -55 -25 -18 -11 -18 -12 7 -6 75 17 122
-84 60 -128 -19 -13 -16 -16 54 -52 l74 -38 52 33 52 33 -30 7 c-16 3 -47 15
-70 27 -41 21 -41 21 -73 1 -49 -30 -60 -23 -18 12 35 29 67 76 67 99 0 18
-39 50 -62 50 -13 -1 -39 -7 -58 -13z"/>
<path d="M1213 906 c4 -5 7 -24 7 -42 0 -40 -51 -88 -86 -81 -32 6 -22 -7 20
-27 46 -22 99 -21 119 2 29 31 21 66 -25 114 -24 24 -40 40 -35 34z"/>
<path d="M4090 878 c0 -7 3 -30 7 -51 l6 -38 34 33 33 32 -32 18 c-40 21 -48
22 -48 6z"/>
<path d="M3586 798 c-45 -30 -47 -33 -26 -38 24 -6 32 -15 100 -122 32 -52 41
-74 36 -93 -6 -25 -6 -26 21 -11 15 8 48 29 73 45 37 25 41 31 23 31 -21 0
-63 55 -147 193 -9 15 -20 27 -24 27 -4 0 -29 -15 -56 -32z"/>
<path d="M1364 788 c14 -21 11 -31 -32 -126 -41 -91 -49 -104 -75 -109 -27 -6
-25 -8 43 -39 84 -39 95 -41 80 -14 -8 16 -3 36 27 102 49 109 60 126 86 130
16 2 0 14 -57 41 -43 20 -80 37 -82 37 -3 0 2 -10 10 -22z"/>
<path d="M3407 690 c-24 -25 -25 -30 -10 -30 10 0 30 -7 46 -14 15 -8 27 -10
27 -5 0 11 -28 79 -32 79 -2 -1 -16 -14 -31 -30z"/>
<path d="M1583 687 c14 -22 13 -30 -32 -128 -42 -91 -52 -105 -76 -109 -26 -4
-20 -9 53 -42 45 -20 82 -35 82 -32 0 2 -5 12 -11 22 -9 15 -3 36 32 113 51
112 54 117 82 122 21 3 21 4 -3 14 -14 6 -50 23 -80 37 -66 32 -66 32 -47 3z"/>
<path d="M3254 655 c-43 -19 -102 -88 -109 -129 -13 -66 11 -113 72 -145 27
-13 142 -14 163 -1 11 7 7 10 -18 10 -47 0 -81 27 -108 85 -25 54 -31 114 -13
146 6 12 25 27 42 34 18 8 25 14 17 14 -8 0 -29 -7 -46 -14z"/>
<path d="M1861 580 c-45 -11 -82 -39 -106 -83 -17 -32 -18 -40 -6 -74 15 -43
54 -88 93 -109 39 -20 45 -17 19 8 -21 19 -23 28 -18 82 7 86 38 153 79 171
l33 14 -30 0 c-16 -1 -45 -5 -64 -9z"/>
<path d="M3485 569 c-27 -11 -61 -24 -75 -31 l-25 -11 25 -6 c35 -9 56 -55 41
-88 -11 -25 -11 -25 31 6 23 17 50 31 59 31 16 0 16 2 2 32 -13 24 -14 38 -5
60 12 33 12 33 -53 7z"/>
<path d="M2016 561 c37 -23 44 -50 32 -127 -11 -72 -42 -132 -71 -138 -57 -13
-58 -15 -1 -13 153 7 221 122 132 223 -17 19 -48 44 -69 55 -49 24 -63 25 -23
0z"/>
<path d="M2780 534 c-42 -18 -86 -59 -106 -96 -24 -46 -18 -84 21 -126 39 -44
89 -63 161 -60 l49 1 -44 6 c-59 8 -80 38 -94 134 -13 90 -3 121 46 142 17 8
25 14 17 14 -8 0 -31 -7 -50 -15z"/>
<path d="M2903 543 c24 -6 44 -49 58 -125 13 -73 8 -109 -21 -138 -29 -29 -11
-25 42 9 74 47 99 101 78 166 -16 47 -88 96 -139 94 -20 -1 -28 -3 -18 -6z"/>
<path d="M2230 463 c0 -31 1 -54 3 -52 1 2 24 28 52 57 l49 52 -52 0 -52 0 0
-57z"/>
<path d="M2357 393 c-5 -115 -8 -130 -28 -145 -21 -17 -19 -18 67 -18 76 0 85
2 69 13 -16 13 -18 26 -13 145 l6 132 -48 0 -47 0 -6 -127z"/>
<path d="M2533 455 c42 -55 42 -55 48 -28 4 16 7 40 8 56 1 26 -1 27 -49 27
l-50 0 43 -55z"/>
</g>
</svg>
